<svg version="1.1" id="Layer_1" xmlns="http://www.w3.org/2000/svg" xmlns:xlink="http://www.w3.org/1999/xlink" x="0px" y="0px"
	 width="100%" viewBox="0 0 800 800" enable-background="new 0 0 800 800" xml:space="preserve">
<path fill="#FFFFFF" opacity="1.000000" stroke="none" 
	d="
M307.000000,801.000000 
	C300.645599,801.000000 294.291199,801.000000 287.758087,800.695679 
	C280.799683,794.507507 273.907623,788.746338 267.289398,782.686218 
	C264.153137,779.814392 261.679016,776.232910 258.667877,773.208984 
	C236.681351,751.127869 214.634644,729.106812 192.293442,706.753113 
	C183.463760,716.067139 174.808228,725.426208 165.898712,734.536987 
	C155.064285,745.616211 143.701416,756.194092 133.160095,767.539795 
	C124.811211,776.525696 112.220345,776.861084 104.292992,773.484497 
	C95.496033,769.737610 87.954674,761.089417 87.960503,748.468384 
	C88.023712,611.658203 87.992126,474.847992 88.007957,338.037781 
	C88.010521,315.913788 87.809715,293.820312 90.843170,271.772156 
	C93.183746,254.759979 96.766594,238.114563 101.708466,221.723816 
	C108.408684,199.501144 117.943741,178.507004 129.256500,158.269821 
	C140.140533,138.799561 153.116028,120.780090 168.226440,104.479706 
	C188.210968,82.921341 209.927597,63.338364 235.314240,47.989269 
	C254.222702,36.556976 273.745575,26.539742 294.493134,19.085850 
	C317.320221,10.884857 340.773987,5.080101 365.032196,2.921394 
	C365.739532,2.858449 366.346344,1.665884 367.000000,1.000008 
	C389.687561,1.000000 412.375122,1.000000 435.229401,1.369417 
	C438.816132,2.491472 442.241150,3.222183 445.655304,4.000474 
	C461.646393,7.645772 477.810150,10.679188 493.580658,15.111046 
	C514.821045,21.080076 534.668518,30.582735 553.900635,41.384460 
	C572.757996,51.975784 590.454712,64.271782 606.254333,78.960403 
	C628.157898,99.323761 648.982056,120.831619 664.203796,146.873627 
	C673.025757,161.966644 681.473450,177.365936 688.795105,193.225006 
	C697.004333,211.006653 702.659546,229.825745 706.472412,249.081772 
	C708.954407,261.616180 711.618286,274.196350 712.790161,286.886261 
	C714.051880,300.549500 713.949402,314.364624 713.956360,328.113770 
	C714.027710,468.410492 713.994568,608.707275 714.009460,749.004028 
	C714.010803,761.144470 706.573975,769.675659 697.678284,773.502808 
	C689.928589,776.836792 677.307251,776.385010 669.184692,767.862427 
	C650.723938,748.492676 631.717773,729.643616 613.077332,710.443054 
	C610.307556,707.590088 608.702026,707.628296 605.915894,710.444702 
	C585.175415,731.410583 564.271118,752.214294 543.423523,773.074158 
	C542.602112,773.896057 541.827454,774.765320 541.042725,775.623108 
	C533.295715,784.091187 526.281006,793.338257 515.957947,799.067383 
	C515.440491,799.354553 515.310486,800.339844 515.000000,801.000000 
	C508.645599,801.000000 502.291199,801.000000 495.757538,800.699768 
	C490.103149,795.484009 484.413696,790.784973 479.191193,785.614319 
	C459.795990,766.411804 440.553528,747.055054 421.257751,727.752136 
	C420.201324,726.695251 419.165375,725.616821 418.146271,724.523865 
	C412.551422,718.523438 406.964813,712.515381 400.972229,706.076782 
	C393.906647,713.650391 387.556580,720.815186 380.826965,727.603760 
	C360.323334,748.286987 339.720276,768.872375 319.036804,789.375671 
	C315.349792,793.030518 311.078766,796.094055 307.131134,799.492981 
	C306.857605,799.728394 307.033234,800.485474 307.000000,801.000000 
M287.528290,263.947174 
	C285.294678,263.618225 283.041870,263.385803 280.830536,262.945007 
	C263.728088,259.535889 247.755264,263.726196 233.031647,271.742706 
	C216.630768,280.672394 205.219513,294.443573 198.322937,312.092896 
	C189.520187,334.620453 191.770142,356.360077 202.861359,377.099182 
	C210.917084,392.162292 223.349121,402.964783 239.203934,410.188812 
	C254.380295,417.103699 270.083435,418.980774 285.907532,415.736389 
	C306.359863,411.543121 323.198578,400.651215 334.960541,382.986572 
	C346.836975,365.150055 351.122101,345.396881 346.831177,324.454315 
	C342.929871,305.413300 333.175507,289.595551 317.366943,277.695129 
	C308.593567,271.090698 298.993683,266.569122 287.528290,263.947174 
M536.317200,417.000000 
	C548.721924,416.097168 560.137329,412.220551 570.925659,406.055664 
	C583.458069,398.894165 593.249268,388.825409 599.682007,376.260986 
	C607.298767,361.383667 611.196228,345.398010 608.069214,328.312866 
	C606.288025,318.580444 603.282959,309.372711 598.347595,300.833405 
	C589.724731,285.913605 577.472473,275.069397 561.622314,268.197205 
	C546.802795,261.771851 531.288269,259.963135 515.747742,263.328735 
	C498.932007,266.970459 484.173981,275.057068 472.851227,288.603302 
	C462.684174,300.766815 455.898468,314.553284 454.153442,330.274139 
	C452.741028,342.998322 453.992645,355.685181 459.000031,367.749786 
	C465.170746,382.617279 474.464661,395.057007 487.966248,403.939545 
	C502.288879,413.362244 518.091858,417.981934 536.317200,417.000000 
z"/>
<path fill="#000000" opacity="1.000000" stroke="none" 
	d="
M515.468628,801.000000 
	C515.310486,800.339844 515.440491,799.354553 515.957947,799.067383 
	C526.281006,793.338257 533.295715,784.091187 541.042725,775.623108 
	C541.827454,774.765320 542.602112,773.896057 543.423523,773.074158 
	C564.271118,752.214294 585.175415,731.410583 605.915894,710.444702 
	C608.702026,707.628296 610.307556,707.590088 613.077332,710.443054 
	C631.717773,729.643616 650.723938,748.492676 669.184692,767.862427 
	C677.307251,776.385010 689.928589,776.836792 697.678284,773.502808 
	C706.573975,769.675659 714.010803,761.144470 714.009460,749.004028 
	C713.994568,608.707275 714.027710,468.410492 713.956360,328.113770 
	C713.949402,314.364624 714.051880,300.549500 712.790161,286.886261 
	C711.618286,274.196350 708.954407,261.616180 706.472412,249.081772 
	C702.659546,229.825745 697.004333,211.006653 688.795105,193.225006 
	C681.473450,177.365936 673.025757,161.966644 664.203796,146.873627 
	C648.982056,120.831619 628.157898,99.323761 606.254333,78.960403 
	C590.454712,64.271782 572.757996,51.975784 553.900635,41.384460 
	C534.668518,30.582735 514.821045,21.080076 493.580658,15.111046 
	C477.810150,10.679188 461.646393,7.645772 445.655304,4.000474 
	C442.241150,3.222183 438.816132,2.491472 435.698059,1.369417 
	C557.629944,1.000000 679.259949,1.000000 800.944946,1.000000 
	C800.944946,267.549530 800.944946,534.099060 800.944946,801.000000 
	C705.979370,801.000000 610.958374,801.000000 515.468628,801.000000 
z"/>
<path fill="#000000" opacity="1.000000" stroke="none" 
	d="
M366.531372,1.000008 
	C366.346344,1.665884 365.739532,2.858449 365.032196,2.921394 
	C340.773987,5.080101 317.320221,10.884857 294.493134,19.085850 
	C273.745575,26.539742 254.222702,36.556976 235.314240,47.989269 
	C209.927597,63.338364 188.210968,82.921341 168.226440,104.479706 
	C153.116028,120.780090 140.140533,138.799561 129.256500,158.269821 
	C117.943741,178.507004 108.408684,199.501144 101.708466,221.723816 
	C96.766594,238.114563 93.183746,254.759979 90.843170,271.772156 
	C87.809715,293.820312 88.010521,315.913788 88.007957,338.037781 
	C87.992126,474.847992 88.023712,611.658203 87.960503,748.468384 
	C87.954674,761.089417 95.496033,769.737610 104.292992,773.484497 
	C112.220345,776.861084 124.811211,776.525696 133.160095,767.539795 
	C143.701416,756.194092 155.064285,745.616211 165.898712,734.536987 
	C174.808228,725.426208 183.463760,716.067139 192.293442,706.753113 
	C214.634644,729.106812 236.681351,751.127869 258.667877,773.208984 
	C261.679016,776.232910 264.153137,779.814392 267.289398,782.686218 
	C273.907623,788.746338 280.799683,794.507507 287.289673,800.695679 
	C191.695374,801.000000 96.390739,801.000000 1.043052,801.000000 
	C1.043052,534.442322 1.043052,267.884644 1.043052,1.000000 
	C122.687363,1.000000 244.375031,1.000000 366.531372,1.000008 
z"/>
<path fill="#000000" opacity="1.000000" stroke="none" 
	d="
M307.468689,801.000000 
	C307.033234,800.485474 306.857605,799.728394 307.131134,799.492981 
	C311.078766,796.094055 315.349792,793.030518 319.036804,789.375671 
	C339.720276,768.872375 360.323334,748.286987 380.826965,727.603760 
	C387.556580,720.815186 393.906647,713.650391 400.972229,706.076782 
	C406.964813,712.515381 412.551422,718.523438 418.146271,724.523865 
	C419.165375,725.616821 420.201324,726.695251 421.257751,727.752136 
	C440.553528,747.055054 459.795990,766.411804 479.191193,785.614319 
	C484.413696,790.784973 490.103149,795.484009 495.289124,800.699768 
	C432.645782,801.000000 370.291534,801.000000 307.468689,801.000000 
z"/>
<path fill="#000000" opacity="1.000000" stroke="none" 
	d="
M287.960419,263.972687 
	C298.993683,266.569122 308.593567,271.090698 317.366943,277.695129 
	C333.175507,289.595551 342.929871,305.413300 346.831177,324.454315 
	C351.122101,345.396881 346.836975,365.150055 334.960541,382.986572 
	C323.198578,400.651215 306.359863,411.543121 285.907532,415.736389 
	C270.083435,418.980774 254.380295,417.103699 239.203934,410.188812 
	C223.349121,402.964783 210.917084,392.162292 202.861359,377.099182 
	C191.770142,356.360077 189.520187,334.620453 198.322937,312.092896 
	C205.219513,294.443573 216.630768,280.672394 233.031647,271.742706 
	C247.755264,263.726196 263.728088,259.535889 280.830536,262.945007 
	C283.041870,263.385803 285.294678,263.618225 287.960419,263.972687 
z"/>
<path fill="#000000" opacity="1.000000" stroke="none" 
	d="
M535.838501,417.000000 
	C518.091858,417.981934 502.288879,413.362244 487.966248,403.939545 
	C474.464661,395.057007 465.170746,382.617279 459.000031,367.749786 
	C453.992645,355.685181 452.741028,342.998322 454.153442,330.274139 
	C455.898468,314.553284 462.684174,300.766815 472.851227,288.603302 
	C484.173981,275.057068 498.932007,266.970459 515.747742,263.328735 
	C531.288269,259.963135 546.802795,261.771851 561.622314,268.197205 
	C577.472473,275.069397 589.724731,285.913605 598.347595,300.833405 
	C603.282959,309.372711 606.288025,318.580444 608.069214,328.312866 
	C611.196228,345.398010 607.298767,361.383667 599.682007,376.260986 
	C593.249268,388.825409 583.458069,398.894165 570.925659,406.055664 
	C560.137329,412.220551 548.721924,416.097168 535.838501,417.000000 
z"/>
</svg>